<svg width="403" height="50" viewBox="0 0 403 50" fill="none" xmlns="http://www.w3.org/2000/svg">
<rect x="179.5" y="3.5" width="43" height="43" stroke="white" stroke-width="7"/>
<g style="mix-blend-mode:difference">
<path d="M156.594 26.3633C156.594 25.3633 156.73 24.4766 157.004 23.7031C157.277 22.9219 157.664 22.2656 158.164 21.7344C158.672 21.1953 159.277 20.7891 159.98 20.5156C160.691 20.2344 161.48 20.0938 162.348 20.0938C162.723 20.0938 163.09 20.1172 163.449 20.1641C163.816 20.2109 164.176 20.2852 164.527 20.3867V15.4414H166.578V32H164.75L164.68 29.7734C164.109 30.6016 163.492 31.2148 162.828 31.6133C162.164 32.0117 161.445 32.2109 160.672 32.2109C160 32.2109 159.406 32.0703 158.891 31.7891C158.383 31.5078 157.957 31.1133 157.613 30.6055C157.277 30.0898 157.023 29.4727 156.852 28.7539C156.68 28.0352 156.594 27.2383 156.594 26.3633ZM158.68 26.2344C158.68 27.6562 158.887 28.7188 159.301 29.4219C159.723 30.1172 160.316 30.4648 161.082 30.4648C161.598 30.4648 162.141 30.2344 162.711 29.7734C163.289 29.3125 163.895 28.6289 164.527 27.7227V22.2617C164.191 22.1055 163.82 21.9883 163.414 21.9102C163.008 21.8242 162.605 21.7812 162.207 21.7812C161.098 21.7812 160.23 22.1406 159.605 22.8594C158.988 23.5781 158.68 24.7031 158.68 26.2344ZM180.324 25.4961C180.324 25.7852 180.32 26.0273 180.312 26.2227C180.305 26.418 180.293 26.6016 180.277 26.7734H172.016C172.016 27.9766 172.352 28.9023 173.023 29.5508C173.695 30.1914 174.664 30.5117 175.93 30.5117C176.273 30.5117 176.617 30.5 176.961 30.4766C177.305 30.4453 177.637 30.4062 177.957 30.3594C178.277 30.3125 178.582 30.2617 178.871 30.207C179.168 30.1445 179.441 30.0781 179.691 30.0078V31.6836C179.137 31.8398 178.508 31.9648 177.805 32.0586C177.109 32.1602 176.387 32.2109 175.637 32.2109C174.629 32.2109 173.762 32.0742 173.035 31.8008C172.309 31.5273 171.711 31.1328 171.242 30.6172C170.781 30.0938 170.438 29.457 170.211 28.707C169.992 27.9492 169.883 27.0938 169.883 26.1406C169.883 25.3125 170 24.5312 170.234 23.7969C170.477 23.0547 170.824 22.4062 171.277 21.8516C171.738 21.2891 172.301 20.8438 172.965 20.5156C173.629 20.1875 174.383 20.0234 175.227 20.0234C176.047 20.0234 176.773 20.1523 177.406 20.4102C178.039 20.668 178.57 21.0352 179 21.5117C179.438 21.9805 179.766 22.5547 179.984 23.2344C180.211 23.9062 180.324 24.6602 180.324 25.4961ZM178.203 25.2031C178.227 24.6797 178.176 24.2031 178.051 23.7734C177.926 23.3359 177.73 22.9609 177.465 22.6484C177.207 22.3359 176.883 22.0938 176.492 21.9219C176.102 21.7422 175.648 21.6523 175.133 21.6523C174.688 21.6523 174.281 21.7383 173.914 21.9102C173.547 22.082 173.23 22.3242 172.965 22.6367C172.699 22.9492 172.484 23.3242 172.32 23.7617C172.156 24.1992 172.055 24.6797 172.016 25.2031H178.203ZM194.023 17.3398C192.953 17.1133 192.031 17 191.258 17C189.422 17 188.504 17.9609 188.504 19.8828V21.9453H193.66V23.6445H188.504V32H186.43V23.6445H182.645V21.9453H186.43V20C186.43 16.8672 188.062 15.3008 191.328 15.3008C192.141 15.3008 193.039 15.3945 194.023 15.582V17.3398ZM204.336 32L204.289 30.418C203.648 31.0508 202.996 31.5078 202.332 31.7891C201.676 32.0703 200.984 32.2109 200.258 32.2109C199.586 32.2109 199.012 32.125 198.535 31.9531C198.059 31.7812 197.664 31.5469 197.352 31.25C197.047 30.9453 196.82 30.5898 196.672 30.1836C196.531 29.7773 196.461 29.3359 196.461 28.8594C196.461 27.6797 196.898 26.7578 197.773 26.0938C198.656 25.4219 199.957 25.0859 201.676 25.0859H204.113V24.0547C204.113 23.3594 203.891 22.8047 203.445 22.3906C203 21.9688 202.32 21.7578 201.406 21.7578C200.742 21.7578 200.086 21.832 199.438 21.9805C198.797 22.1289 198.133 22.3398 197.445 22.6133V20.7734C197.703 20.6797 197.988 20.5898 198.301 20.5039C198.621 20.4102 198.957 20.3281 199.309 20.2578C199.66 20.1875 200.027 20.1328 200.41 20.0938C200.793 20.0469 201.18 20.0234 201.57 20.0234C202.281 20.0234 202.922 20.1016 203.492 20.2578C204.062 20.4141 204.543 20.6523 204.934 20.9727C205.332 21.293 205.637 21.6953 205.848 22.1797C206.059 22.6641 206.164 23.2344 206.164 23.8906V32H204.336ZM204.113 26.6445H201.523C201.016 26.6445 200.578 26.6953 200.211 26.7969C199.844 26.8984 199.543 27.043 199.309 27.2305C199.074 27.418 198.898 27.6445 198.781 27.9102C198.672 28.168 198.617 28.4609 198.617 28.7891C198.617 29.0156 198.652 29.2344 198.723 29.4453C198.793 29.6484 198.906 29.832 199.062 29.9961C199.219 30.1523 199.422 30.2773 199.672 30.3711C199.922 30.4648 200.227 30.5117 200.586 30.5117C201.055 30.5117 201.59 30.3711 202.191 30.0898C202.801 29.8008 203.441 29.3477 204.113 28.7305V26.6445ZM219.113 31.5664C218.582 31.7695 218.035 31.918 217.473 32.0117C216.918 32.1133 216.344 32.1641 215.75 32.1641C213.891 32.1641 212.457 31.6602 211.449 30.6523C210.449 29.6445 209.949 28.1719 209.949 26.2344C209.949 25.3047 210.094 24.4609 210.383 23.7031C210.672 22.9453 211.078 22.2969 211.602 21.7578C212.125 21.2188 212.75 20.8047 213.477 20.5156C214.203 20.2188 215.004 20.0703 215.879 20.0703C216.488 20.0703 217.059 20.1133 217.59 20.1992C218.121 20.2852 218.629 20.4258 219.113 20.6211V22.5664C218.605 22.3008 218.086 22.1094 217.555 21.9922C217.031 21.8672 216.488 21.8047 215.926 21.8047C215.402 21.8047 214.906 21.9062 214.438 22.1094C213.977 22.3047 213.57 22.5898 213.219 22.9648C212.867 23.3398 212.59 23.7969 212.387 24.3359C212.184 24.875 212.082 25.4844 212.082 26.1641C212.082 27.5859 212.426 28.6523 213.113 29.3633C213.809 30.0664 214.77 30.418 215.996 30.418C216.551 30.418 217.086 30.3555 217.602 30.2305C218.125 30.1055 218.629 29.918 219.113 29.668V31.5664ZM232.648 31.8359C232.188 31.9531 231.711 32.0352 231.219 32.082C230.727 32.1367 230.227 32.1641 229.719 32.1641C228.242 32.1641 227.141 31.832 226.414 31.168C225.688 30.4961 225.324 29.4688 225.324 28.0859V21.9453H222.031V20.2344H225.324V17L227.363 16.4727V20.2344H232.648V21.9453H227.363V27.9219C227.363 28.7656 227.586 29.3984 228.031 29.8203C228.484 30.2344 229.148 30.4414 230.023 30.4414C230.398 30.4414 230.809 30.4141 231.254 30.3594C231.699 30.2969 232.164 30.2031 232.648 30.0781V31.8359ZM246.605 26.0234C246.605 26.9375 246.477 27.7773 246.219 28.543C245.961 29.3008 245.59 29.9531 245.105 30.5C244.621 31.0391 244.031 31.4609 243.336 31.7656C242.641 32.0625 241.852 32.2109 240.969 32.2109C240.125 32.2109 239.367 32.082 238.695 31.8242C238.031 31.5586 237.465 31.1719 236.996 30.6641C236.535 30.1562 236.18 29.5273 235.93 28.7773C235.688 28.0273 235.566 27.1641 235.566 26.1875C235.566 25.2734 235.695 24.4414 235.953 23.6914C236.211 22.9336 236.582 22.2852 237.066 21.7461C237.551 21.1992 238.141 20.7773 238.836 20.4805C239.531 20.1758 240.32 20.0234 241.203 20.0234C242.047 20.0234 242.801 20.1562 243.465 20.4219C244.137 20.6797 244.703 21.0625 245.164 21.5703C245.633 22.0703 245.988 22.6953 246.23 23.4453C246.48 24.1953 246.605 25.0547 246.605 26.0234ZM244.52 26.1172C244.52 25.3906 244.438 24.7578 244.273 24.2188C244.117 23.6719 243.891 23.2188 243.594 22.8594C243.297 22.4922 242.934 22.2188 242.504 22.0391C242.082 21.8516 241.609 21.7578 241.086 21.7578C240.477 21.7578 239.953 21.8789 239.516 22.1211C239.086 22.3555 238.73 22.6719 238.449 23.0703C238.176 23.4688 237.973 23.9336 237.84 24.4648C237.715 24.9883 237.652 25.5391 237.652 26.1172C237.652 26.8438 237.73 27.4805 237.887 28.0273C238.051 28.5742 238.281 29.0312 238.578 29.3984C238.875 29.7578 239.234 30.0312 239.656 30.2188C240.078 30.3984 240.555 30.4883 241.086 30.4883C241.695 30.4883 242.215 30.3711 242.645 30.1367C243.082 29.8945 243.438 29.5742 243.711 29.1758C243.992 28.7773 244.195 28.3164 244.32 27.793C244.453 27.2617 244.52 26.7031 244.52 26.1172Z" fill="white"/>
</g>
</svg>
